<svg fill="#FA5252" xmlns="http://www.w3.org/2000/svg"  viewBox="0 0 32 32" width="32px" height="32px"><path d="M 16 1.796875 C 14.609842 1.796875 13.220056 2.0236183 11.886719 2.4765625 C 10.790918 2.8487493 9.9716454 3.8186096 9.8457031 4.9960938 L 9.8476562 4.9960938 C 9.823717 5.2192366 9.8260965 5.4407699 9.828125 5.6621094 C 8.6980388 5.5366353 7.5698981 5.3884329 6.4472656 5.1933594 A 1.0001 1.0001 0 1 0 6.1054688 7.1640625 C 6.5016683 7.2329079 6.899652 7.2832828 7.296875 7.34375 C 5.9795828 12.790056 5.7276747 18.426446 6.5605469 23.943359 L 6.5625 23.953125 L 6.5644531 23.960938 C 7.0525932 26.828298 9.6277992 28.984375 12.318359 28.984375 L 19.679688 28.984375 C 22.370967 28.984375 24.947453 26.828026 25.435547 23.960938 L 25.435547 23.953125 L 25.4375 23.943359 C 26.271986 18.422306 26.018991 12.782034 24.699219 7.3320312 C 25.098396 7.2707183 25.498349 7.2181869 25.896484 7.1484375 A 1.0001 1.0001 0 0 0 25.71875 5.1621094 A 1.0001 1.0001 0 0 0 25.550781 5.1796875 C 24.427324 5.3765064 23.298946 5.5252061 22.167969 5.6523438 C 22.169913 5.4337969 22.177511 5.2160141 22.154297 4.9960938 C 22.028354 3.8186097 21.209082 2.8487493 20.113281 2.4765625 C 18.779944 2.0236183 17.390158 1.796875 16 1.796875 z M 16 3.7988281 C 17.17302 3.7988281 18.346041 3.989038 19.470703 4.3710938 C 19.852902 4.5009068 20.124005 4.8344685 20.164062 5.2089844 C 20.186312 5.4207522 20.190168 5.6293404 20.177734 5.84375 C 17.397306 6.0553891 14.604823 6.0570824 11.824219 5.8496094 C 11.811413 5.6332896 11.813154 5.4213588 11.835938 5.2089844 C 11.875998 4.8344685 12.147098 4.5009068 12.529297 4.3710938 C 13.653959 3.989038 14.82698 3.7988281 16 3.7988281 z M 22.710938 7.6035156 C 24.010616 12.857557 24.26434 18.303453 23.460938 23.630859 C 23.152658 25.42598 21.191214 26.984375 19.679688 26.984375 L 12.318359 26.984375 C 10.809306 26.984375 8.8496668 25.427822 8.5390625 23.634766 C 7.7364274 18.309833 7.9895689 12.867062 9.2871094 7.6152344 C 13.746791 8.1354052 18.251746 8.1302836 22.710938 7.6035156 z"/></svg>